<?xml version="1.0" encoding="UTF-8" standalone="no"?><!-- Generator: Gravit.io --><svg xmlns="http://www.w3.org/2000/svg" xmlns:xlink="http://www.w3.org/1999/xlink" style="isolation:isolate" viewBox="0 0 24 24" width="24pt" height="24pt"><defs><clipPath id="_clipPath_9qhnuubjoW6YXVgtM0KptmoNZhUWsFZj"><rect width="24" height="24"/></clipPath></defs><g clip-path="url(#_clipPath_9qhnuubjoW6YXVgtM0KptmoNZhUWsFZj)"><path d=" M 8 16 L 8 18 L 15 18 L 16 16 L 8 16 Z " fill="rgb(60,60,60)"/><path d=" M 8 12 L 16 12 L 16 14 L 8 14 L 8 12 Z  M 14 2 L 6 2 C 4.9 2 4 2.9 4 4 L 4 20 C 4 21.1 4.89 22 5.99 22 L 14 22 C 14.558 18.324 16.578 16.011 20 15 L 20 8 L 14 2 Z  M 18 14 C 15.521 14.695 13.207 17.382 13 20 L 6 20 L 6 4 L 13 4 L 13 9 L 18 9 L 18 14 Z " fill="rgb(60,60,60)"/></g></svg>